<svg xmlns="http://www.w3.org/2000/svg" width="2048" height="2048" viewBox="0 0 2048 2048">
  <path d="M 852.5 1787.0 L 994.0 1713.5 L 1043.0 1691.5 L 1204.0 1629.5 L 1308.0 1579.5 L 1310.5 1576.0 L 1307.0 1572.5 L 1070.0 1660.5 L 1037.0 1671.5 L 1033.5 1671.0 L 1035.0 1667.5 L 1448.0 1508.5 L 1494.0 1483.5 L 1591.0 1444.5 L 1691.0 1395.5 L 1692.5 1393.0 L 1677.5 1356.0 L 1671.5 1310.0 L 1677.5 1267.0 L 1696.5 1226.0 L 1695.5 1223.0 L 1693.0 1221.5 L 1678.0 1230.5 L 1596.0 1261.5 L 1594.5 1271.0 L 1558.5 1299.0 L 1561.0 1304.5 L 1615.0 1283.5 L 1654.0 1263.5 L 1658.5 1264.0 L 1642.0 1278.5 L 1607.0 1297.5 L 1556.0 1319.5 L 1339.0 1398.5 L 1337.5 1403.0 L 1341.5 1412.0 L 1347.0 1413.5 L 1461.0 1373.5 L 1568.0 1330.5 L 1578.0 1327.5 L 1577.0 1331.5 L 1466.0 1379.5 L 1339.0 1422.5 L 1313.0 1429.5 L 1307.0 1427.5 L 1272.0 1444.5 L 1265.0 1444.5 L 1212.0 1466.5 L 1141.0 1504.5 L 1030.0 1570.5 L 1028.5 1573.0 L 1032.0 1576.5 L 1109.0 1544.5 L 1259.0 1488.5 L 1343.0 1459.5 L 1345.5 1460.0 L 1344.0 1463.5 L 1260.0 1502.5 L 1048.0 1584.5 L 926.0 1636.5 L 843.5 1710.0 L 838.5 1724.0 L 831.5 1729.0 L 827.0 1742.5 L 821.0 1739.5 L 817.5 1743.0 L 819.0 1746.5 L 824.5 1747.0 L 820.5 1753.0 L 834.5 1775.0 L 848.0 1786.5 L 852.5 1787.0 Z" fill="#b6c4ba" stroke="#4d5f55" stroke-width="10" stroke-linejoin="round"/>
  <path d="M 1212.0 1155.5 L 1201.5 1151.0 L 1209.5 1147.0 L 1205.5 1142.0 L 1209.0 1138.5 L 1214.0 1146.5 L 1225.0 1147.5 L 1225.5 1140.0 L 1219.0 1143.5 L 1213.5 1132.0 L 1215.5 1128.0 L 1209.0 1129.5 L 1206.5 1124.0 L 1211.0 1119.5 L 1214.0 1123.5 L 1223.0 1119.5 L 1229.5 1113.0 L 1223.5 1108.0 L 1243.5 1099.0 L 1238.5 1093.0 L 1242.0 1088.5 L 1249.5 1094.0 L 1246.0 1098.5 L 1259.5 1095.0 L 1243.0 1081.5 L 1237.0 1082.5 L 1235.0 1075.5 L 1225.5 1073.0 L 1231.5 1067.0 L 1226.5 1060.0 L 1233.0 1057.5 L 1238.0 1071.5 L 1242.0 1066.5 L 1247.0 1067.5 L 1259.0 1084.5 L 1267.5 1081.0 L 1265.0 1075.5 L 1260.0 1081.5 L 1257.5 1079.0 L 1262.5 1062.0 L 1256.0 1059.5 L 1252.0 1064.5 L 1247.0 1059.5 L 1244.0 1061.5 L 1243.5 1054.0 L 1238.0 1051.5 L 1235.0 1055.5 L 1223.0 1057.5 L 1225.5 1067.0 L 1215.5 1078.0 L 1225.5 1086.0 L 1223.5 1090.0 L 1227.5 1094.0 L 1223.0 1097.5 L 1217.0 1087.5 L 1207.5 1083.0 L 1213.0 1077.5 L 1207.0 1079.5 L 1202.0 1075.5 L 1196.0 1080.5 L 1193.5 1078.0 L 1197.0 1073.5 L 1192.0 1077.5 L 1187.5 1074.0 L 1195.5 1068.0 L 1193.0 1065.5 L 1177.5 1064.0 L 1184.0 1058.5 L 1188.0 1061.5 L 1194.0 1057.5 L 1201.0 1059.5 L 1201.0 1056.5 L 1195.0 1053.5 L 1190.0 1056.5 L 1184.0 1051.5 L 1179.0 1057.5 L 1175.5 1056.0 L 1170.0 1066.5 L 1166.5 1062.0 L 1168.5 1058.0 L 1153.5 1047.0 L 1159.5 1033.0 L 1167.5 1031.0 L 1169.5 1022.0 L 1166.0 1025.5 L 1163.5 1021.0 L 1169.0 1011.5 L 1175.5 1012.0 L 1171.5 1000.0 L 1185.0 972.5 L 1191.0 971.5 L 1198.0 981.5 L 1204.0 979.5 L 1209.0 985.5 L 1209.5 975.0 L 1216.0 969.5 L 1219.5 974.0 L 1215.5 985.0 L 1222.0 987.5 L 1220.5 981.0 L 1227.0 973.5 L 1231.0 977.5 L 1240.0 972.5 L 1246.0 978.5 L 1253.5 977.0 L 1251.0 969.5 L 1247.0 973.5 L 1242.5 970.0 L 1245.5 967.0 L 1243.0 963.5 L 1233.0 970.5 L 1229.0 963.5 L 1223.0 968.5 L 1221.5 963.0 L 1215.5 960.0 L 1221.0 955.5 L 1224.0 960.5 L 1231.0 955.5 L 1237.0 959.5 L 1242.0 954.5 L 1246.5 960.0 L 1249.5 948.0 L 1246.0 949.5 L 1239.5 940.0 L 1259.0 915.5 L 1248.0 913.5 L 1249.5 922.0 L 1244.0 929.5 L 1243.0 923.5 L 1239.0 927.5 L 1236.0 925.5 L 1235.0 931.5 L 1230.0 931.5 L 1227.0 923.5 L 1222.0 925.5 L 1227.5 946.0 L 1218.0 953.5 L 1213.0 947.5 L 1206.0 949.5 L 1199.5 944.0 L 1206.5 931.0 L 1215.5 927.0 L 1218.0 916.5 L 1221.0 919.5 L 1229.5 917.0 L 1226.5 913.0 L 1227.5 898.0 L 1223.5 894.0 L 1228.0 881.5 L 1233.5 885.0 L 1228.5 879.0 L 1233.5 875.0 L 1228.5 872.0 L 1233.5 866.0 L 1231.5 862.0 L 1219.0 856.5 L 1217.0 851.5 L 1208.0 853.5 L 1207.5 845.0 L 1210.0 842.5 L 1215.0 845.5 L 1227.0 825.5 L 1238.0 840.5 L 1247.5 837.0 L 1247.0 831.5 L 1242.0 831.5 L 1239.0 837.5 L 1233.5 832.0 L 1233.5 821.0 L 1239.5 817.0 L 1231.5 815.0 L 1238.5 808.0 L 1230.5 803.0 L 1234.0 797.5 L 1241.5 806.0 L 1239.5 809.0 L 1243.0 807.5 L 1251.5 816.0 L 1248.0 821.5 L 1257.5 815.0 L 1255.5 810.0 L 1259.0 803.5 L 1251.0 807.5 L 1236.5 795.0 L 1239.5 787.0 L 1236.5 772.0 L 1241.0 768.5 L 1245.5 773.0 L 1244.5 779.0 L 1250.0 777.5 L 1255.5 786.0 L 1241.5 792.0 L 1246.0 798.5 L 1249.5 796.0 L 1244.5 793.0 L 1247.0 789.5 L 1259.5 789.0 L 1253.5 776.0 L 1261.0 773.5 L 1271.5 779.0 L 1270.0 785.5 L 1279.5 789.0 L 1277.5 792.0 L 1283.0 801.5 L 1291.0 799.5 L 1301.0 811.5 L 1304.5 806.0 L 1299.5 804.0 L 1299.5 800.0 L 1305.0 797.5 L 1315.5 808.0 L 1313.5 811.0 L 1318.5 817.0 L 1313.0 826.5 L 1310.5 824.0 L 1313.5 820.0 L 1308.0 815.5 L 1301.0 827.5 L 1297.0 823.5 L 1290.0 828.5 L 1287.0 826.5 L 1288.0 833.5 L 1295.0 831.5 L 1299.0 834.5 L 1305.0 828.5 L 1306.0 834.5 L 1319.0 831.5 L 1322.0 835.5 L 1331.0 835.5 L 1336.0 827.5 L 1342.5 828.0 L 1342.5 834.0 L 1335.5 836.0 L 1338.5 839.0 L 1335.0 842.5 L 1321.0 839.5 L 1300.0 839.5 L 1297.0 843.5 L 1277.5 842.0 L 1292.5 857.0 L 1281.5 865.0 L 1292.0 867.5 L 1297.0 874.5 L 1303.0 865.5 L 1312.5 861.0 L 1299.5 855.0 L 1300.0 847.5 L 1305.0 851.5 L 1309.0 845.5 L 1316.0 845.5 L 1319.0 853.5 L 1323.0 845.5 L 1330.0 845.5 L 1331.0 853.5 L 1337.0 851.5 L 1340.0 844.5 L 1348.5 855.0 L 1344.5 861.0 L 1351.0 857.5 L 1355.5 862.0 L 1343.5 875.0 L 1354.0 878.5 L 1351.5 871.0 L 1355.0 868.5 L 1363.5 882.0 L 1354.5 887.0 L 1366.5 897.0 L 1349.5 910.0 L 1364.5 910.0 L 1354.0 922.5 L 1338.5 917.0 L 1346.5 928.0 L 1344.0 935.5 L 1339.5 928.0 L 1339.0 941.5 L 1333.5 939.0 L 1335.5 934.0 L 1329.5 930.0 L 1329.0 923.5 L 1317.5 924.0 L 1326.5 930.0 L 1323.5 937.0 L 1327.0 945.5 L 1334.0 940.5 L 1337.0 943.5 L 1343.0 940.5 L 1343.0 945.5 L 1337.0 950.5 L 1326.0 947.5 L 1327.5 951.0 L 1322.0 956.5 L 1315.0 951.5 L 1319.5 960.0 L 1314.0 960.5 L 1314.5 967.0 L 1305.0 973.5 L 1299.5 971.0 L 1299.5 966.0 L 1311.0 962.5 L 1307.5 958.0 L 1311.5 954.0 L 1306.0 951.5 L 1305.5 957.0 L 1300.0 960.5 L 1296.5 958.0 L 1298.0 954.5 L 1292.5 959.0 L 1293.5 966.0 L 1281.5 973.0 L 1284.0 977.5 L 1288.0 975.5 L 1299.0 982.5 L 1302.0 975.5 L 1313.0 981.5 L 1319.0 979.5 L 1319.0 969.5 L 1323.5 972.0 L 1324.0 979.5 L 1329.0 975.5 L 1331.5 978.0 L 1330.0 981.5 L 1337.0 981.5 L 1344.0 970.5 L 1349.5 975.0 L 1343.5 981.0 L 1351.5 983.0 L 1348.5 988.0 L 1352.5 993.0 L 1344.5 1001.0 L 1353.5 1001.0 L 1348.5 1014.0 L 1354.5 1016.0 L 1350.5 1019.0 L 1356.5 1026.0 L 1351.5 1029.0 L 1355.5 1037.0 L 1353.5 1041.0 L 1361.0 1041.5 L 1365.0 1037.5 L 1368.5 1040.0 L 1363.5 1044.0 L 1366.5 1048.0 L 1364.5 1058.0 L 1357.5 1063.0 L 1362.5 1065.0 L 1361.0 1069.5 L 1370.5 1072.0 L 1360.0 1077.5 L 1355.5 1073.0 L 1357.0 1069.5 L 1353.0 1071.5 L 1354.5 1075.0 L 1336.5 1089.0 L 1339.5 1093.0 L 1335.0 1096.5 L 1321.0 1097.5 L 1311.0 1093.5 L 1309.0 1103.5 L 1323.0 1106.5 L 1321.5 1102.0 L 1325.0 1099.5 L 1326.0 1106.5 L 1329.0 1103.5 L 1332.5 1106.0 L 1322.0 1117.5 L 1308.0 1105.5 L 1306.0 1107.5 L 1305.0 1101.5 L 1299.0 1115.5 L 1286.0 1115.5 L 1268.0 1125.5 L 1258.0 1124.5 L 1248.0 1115.5 L 1249.5 1119.0 L 1241.5 1128.0 L 1245.5 1134.0 L 1239.5 1136.0 L 1244.5 1141.0 L 1240.0 1141.5 L 1237.0 1147.5 L 1232.0 1145.5 L 1225.0 1153.5 L 1220.0 1149.5 L 1212.0 1155.5 Z" fill="#f5f7f5" opacity="0.9"/>
</svg>
